<svg xmlns="http://www.w3.org/2000/svg" width="20" height="20" viewBox="0 0 20 20">
  <g id="whatsapp-logo-4456" transform="translate(0.282 0.282)">
    <circle id="Ellipse_613" data-name="Ellipse 613" cx="10" cy="10" r="10" transform="translate(-0.282 -0.282)" fill="#2ab540"/>
    <path id="Path_30098" data-name="Path 30098" d="M44.718,50.6a6.289,6.289,0,0,0,.842,3.151l-.894,3.266,3.342-.876a6.3,6.3,0,0,0,3.013.767h0a6.3,6.3,0,1,0-6.3-6.307m1.99,2.986-.125-.2a5.24,5.24,0,1,1,4.439,2.455h0a5.236,5.236,0,0,1-2.667-.73L48.162,55l-1.983.52Zm4.314,3.321h0" transform="translate(-41.278 -40.941)" fill="#fff"/>
    <path id="Path_30099" data-name="Path 30099" d="M87.035,88.386c-.118-.262-.242-.268-.355-.272-.092,0-.2,0-.3,0a.578.578,0,0,0-.42.2,1.766,1.766,0,0,0-.551,1.314,3.065,3.065,0,0,0,.643,1.629,6.467,6.467,0,0,0,2.691,2.378c1.331.525,1.6.42,1.89.394a1.591,1.591,0,0,0,1.063-.749,1.316,1.316,0,0,0,.092-.749c-.039-.066-.144-.105-.3-.184s-.932-.46-1.076-.512-.249-.079-.355.079-.407.512-.5.617-.184.118-.341.04a4.308,4.308,0,0,1-1.267-.782,4.751,4.751,0,0,1-.876-1.091c-.092-.157-.01-.243.069-.321s.157-.184.236-.276a1.08,1.08,0,0,0,.157-.263.29.29,0,0,0-.013-.276c-.039-.079-.345-.858-.485-1.169" transform="translate(-78.866 -81.36)" fill="#fff"/>
  </g>
</svg>
