<svg xmlns="http://www.w3.org/2000/svg" width="15.5" height="15.5" viewBox="0 0 15.5 15.5">
  <path id="Camp_Time" data-name="Camp Time" d="M0,7.5A7.29,7.29,0,0,1,.6,4.59a7.732,7.732,0,0,1,1.59-2.4A7.189,7.189,0,0,1,4.59.6,7.729,7.729,0,0,1,7.5,0a7.327,7.327,0,0,1,2.925.6A7.546,7.546,0,0,1,12.81,2.19a7.5,7.5,0,0,1,1.59,2.4A7.362,7.362,0,0,1,15,7.5a7.22,7.22,0,0,1-.6,2.91,7.973,7.973,0,0,1-1.59,2.4,7.076,7.076,0,0,1-2.4,1.6,7.53,7.53,0,0,1-5.82,0,7.076,7.076,0,0,1-2.4-1.6A7.973,7.973,0,0,1,.6,10.41,7.22,7.22,0,0,1,0,7.5Zm1.875,0a5.592,5.592,0,0,0,.75,2.835,5.369,5.369,0,0,0,2.055,2.04,5.772,5.772,0,0,0,2.82.75,5.372,5.372,0,0,0,2.82-.75,5.662,5.662,0,0,0,2.055-2.04,5.487,5.487,0,0,0,.75-2.835,5.408,5.408,0,0,0-.75-2.82A5.821,5.821,0,0,0,10.32,2.64,5.294,5.294,0,0,0,7.5,1.875a5.68,5.68,0,0,0-2.82.765,5.558,5.558,0,0,0-2.8,4.86Zm4.7,0V4.7a.9.9,0,0,1,.27-.66A.953.953,0,0,1,7.5,3.75a.809.809,0,0,1,.66.285,1.033,1.033,0,0,1,.285.66V6.57H10.32a.931.931,0,0,1,.66.27.827.827,0,0,1,.27.66,1.042,1.042,0,0,1-.27.675.8.8,0,0,1-.66.27H7.5a.9.9,0,0,1-.66-.27A.916.916,0,0,1,6.57,7.5Z" transform="translate(0.25 0.25)" stroke="#fff" stroke-width="0.5"/>
</svg>
