<svg xmlns="http://www.w3.org/2000/svg" width="7.361" height="13" viewBox="0 0 7.361 13">
  <g id="Mobile_No." data-name="Mobile No." transform="translate(-5.951)">
    <path id="Path_30053" data-name="Path 30053" d="M12.366,0H6.9a.946.946,0,0,0-.946.947V12.054A.946.946,0,0,0,6.9,13h5.469a.946.946,0,0,0,.946-.946V.947A.947.947,0,0,0,12.366,0ZM8.282.575h2.7c.068,0,.124.1.124.228s-.055.228-.124.228h-2.7c-.069,0-.123-.1-.123-.228S8.213.575,8.282.575Zm1.35,11.49a.6.6,0,1,1,.6-.6A.6.6,0,0,1,9.632,12.065ZM12.6,10H6.66V1.6H12.6V10Z" fill="#0d468d"/>
  </g>
</svg>
