<svg xmlns="http://www.w3.org/2000/svg" width="13.159" height="13.159" viewBox="0 0 13.159 13.159">
  <path id="calendar-days-svgrepo-com" d="M3,7.12H15.359M5.746,3V4.373M12.613,3V4.373M5.06,9.179H6.433m2.06,0H9.866m2.06,0H13.3M5.06,11.239H6.433m2.06,0H9.866m2.06,0H13.3M5.06,13.3H6.433m2.06,0H9.866m2.06,0H13.3m-8.1,2.06h7.965a3.411,3.411,0,0,0,1.447-.15,1.373,1.373,0,0,0,.6-.6,3.411,3.411,0,0,0,.15-1.447V6.57a3.411,3.411,0,0,0-.15-1.447,1.373,1.373,0,0,0-.6-.6,3.412,3.412,0,0,0-1.447-.15H5.2a3.412,3.412,0,0,0-1.447.15,1.373,1.373,0,0,0-.6.6A3.411,3.411,0,0,0,3,6.57v6.591a3.412,3.412,0,0,0,.15,1.447,1.373,1.373,0,0,0,.6.6A3.411,3.411,0,0,0,5.2,15.359Z" transform="translate(-2.6 -2.6)" fill="none" stroke="#000" stroke-linecap="round" stroke-width="0.8"/>
</svg>
