<svg xmlns="http://www.w3.org/2000/svg" width="15.924" height="21.643" viewBox="0 0 15.924 21.643">
  <g id="Camp_Name" data-name="Camp Name" transform="translate(-142.911 -154.624)">
    <path id="building-svgrepo-com" d="M13.089,0H2V14.785H5.7v-3.7h3.7v3.7h3.7ZM4.772,2.772H6.62V4.62H4.772Zm1.848,3.7H4.772V8.317H6.62Zm1.848-3.7h1.848V4.62H8.469Zm1.848,3.7H8.469V8.317h1.848Z" transform="translate(140.911 161.482)" fill="#696969" fill-rule="evenodd"/>
    <g id="Group_72509" data-name="Group 72509" transform="translate(48.242 -35.597)">
      <g id="Group_72509-2" data-name="Group 72509" transform="translate(102.221 190.221)">
        <path id="Path_30058" data-name="Path 30058" d="M94.7,18.067a4.186,4.186,0,1,1-8.372,0c0-2.312,4.186-8.067,4.186-8.067S94.7,15.755,94.7,18.067Z" transform="translate(-86.329 -10)" fill="#ff2e3d"/>
      </g>
      <g id="Group_72510" data-name="Group 72510" transform="translate(106.047 199.703)">
        <path id="Path_30060" data-name="Path 30060" d="M237.1,385a.254.254,0,1,1,0-.508,3.081,3.081,0,0,0,2.571-1.38.254.254,0,0,1,.423.281A3.588,3.588,0,0,1,237.1,385Z" transform="translate(-236.849 -382.999)" fill="#fff"/>
      </g>
      <g id="Group_72511" data-name="Group 72511" transform="translate(109.301 197.858)">
        <path id="Path_30061" data-name="Path 30061" d="M365.085,311.671a.254.254,0,0,1-.248-.311,3.1,3.1,0,0,0,.079-.7.254.254,0,0,1,.508,0,3.61,3.61,0,0,1-.092.809A.254.254,0,0,1,365.085,311.671Z" transform="translate(-364.831 -310.41)" fill="#fff"/>
      </g>
      <path id="Path_30062" data-name="Path 30062" d="M167,231.385h-1.385V230h-1.729v1.385H162.5v1.729h1.385V234.5h1.729v-1.385H167Z" transform="translate(-58.343 -34.187)" fill="#fff"/>
    </g>
  </g>
</svg>
