<svg xmlns="http://www.w3.org/2000/svg" width="13.905" height="15.45" viewBox="0 0 13.905 15.45">
  <path id="Camp_Date" data-name="Camp Date" d="M5.318,17.45h9.27a2.318,2.318,0,0,0,2.318-2.318V5.863A1.545,1.545,0,0,0,15.36,4.318H13.815V2.773a.773.773,0,1,0-1.545,0V4.318H7.635V2.773a.773.773,0,1,0-1.545,0V4.318H4.545A1.545,1.545,0,0,0,3,5.863v9.27A2.318,2.318,0,0,0,5.318,17.45Zm-.773-7.339a.386.386,0,0,1,.386-.386H14.974a.386.386,0,0,1,.386.386v5.021a.773.773,0,0,1-.773.773H5.318a.773.773,0,0,1-.773-.773Z" transform="translate(-3 -2)"/>
</svg>
