<svg xmlns="http://www.w3.org/2000/svg" xmlns:xlink="http://www.w3.org/1999/xlink" width="218" height="139" viewBox="0 0 218 139">
  <defs>
    <clipPath id="clip-path">
      <rect id="Rectangle_146053" data-name="Rectangle 146053" width="218" height="139" transform="translate(-0.347 0.454)" fill="#fff" stroke="#707070" stroke-width="1"/>
    </clipPath>
  </defs>
  <g id="Mask_Group_30" data-name="Mask Group 30" transform="translate(0.347 -0.454)" clip-path="url(#clip-path)">
    <g id="Group_72663" data-name="Group 72663" transform="translate(0.042 -0.104)">
      <g id="_Group_" data-name="&lt;Group&gt;" transform="translate(76.497 9.615)">
        <g id="_Group_2" data-name="&lt;Group&gt;" transform="translate(90.45 80.299)">
          <path id="_Path_" data-name="&lt;Path&gt;" d="M-23.574,465.2l1.8,27.686-21.131,4.37-.1-7.708Z" transform="translate(71.935 -448.055)" fill="#919cbb"/>
          <path id="_Path_2" data-name="&lt;Path&gt;" d="M-8.1,436.061l19.426-25.117L-17.227,393.8-35.5,416.924Z" transform="translate(37.037 -393.8)" fill="#72798e"/>
          <path id="_Path_3" data-name="&lt;Path&gt;" d="M74.031,516.177,45,498.384l1.537-8.284,27.4,19.138Z" transform="translate(-45 -466.976)" fill="#5b678d"/>
        </g>
        <g id="_Group_3" data-name="&lt;Group&gt;" transform="translate(0)">
          <path id="_Path_4" data-name="&lt;Path&gt;" d="M482.232,536.653l.312-9.053H475.1l1.873,11.982,4.13-.816Z" transform="translate(-466.34 -415.172)" fill="#e488a0"/>
          <path id="_Path_5" data-name="&lt;Path&gt;" d="M429.54,558.225l.5-9.125H422.6l1.657,11.166Z" transform="translate(-401.233 -431.51)" fill="#eaadc1"/>
          <g id="_Group_4" data-name="&lt;Group&gt;" transform="translate(33.997 112.473)">
            <path id="_Path_6" data-name="&lt;Path&gt;" d="M232.538,543.977c-19.426,1.561-29.1-3.41-29.031-5.4a3.863,3.863,0,0,1,.96-2.137c3.6-4.778,9.461-7.468,15.368-8.308,5.931-.841,11.958,0,17.793,1.249q5.163,1.1,10.205,2.593C254,534.42,251.939,542.392,232.538,543.977Z" transform="translate(-203.507 -527.79)" fill="#919cbb"/>
          </g>
          <g id="_Group_5" data-name="&lt;Group&gt;" transform="translate(33.997 117.278)">
            <path id="_Path_7" data-name="&lt;Path&gt;" d="M205.047,550.97a9.41,9.41,0,0,0,1.681,1.537c2.881,2.113,6.459,3.218,9.869,4.13a37.634,37.634,0,0,0,16.04.408c2.545-.432,5.019-1.1,7.564-1.609a27.242,27.242,0,0,0,5.979-1.633c1.441-.648,3.1-1.729,3.362-3.41a4.093,4.093,0,0,0-.456-2.593c4.562,2.954,1.489,9.917-16.5,11.382-19.426,1.561-29.1-3.41-29.031-5.4a3.863,3.863,0,0,1,.96-2.137l.528-.672Z" transform="translate(-203.558 -547.8)" fill="#72798e"/>
          </g>
          <path id="_Path_8" data-name="&lt;Path&gt;" d="M261.2,427.129a6.611,6.611,0,0,0,1.249.576,15.635,15.635,0,0,0,2.978.624,45.5,45.5,0,0,0,5.715.24c3.89.024,7.54.336,11.19-.7-1.008-7.924-2.185-15.9-2.089-23.868q0-.984.024-1.945c.1-4.034.312-8.044.288-12.078q0-2.329-.1-4.634V385.3H262.713q-.024.408-.024.816c-.192,5.979-.12,11.958-.144,17.937q0,2.641-.048,5.259A138.953,138.953,0,0,1,261.2,427.129Z" transform="translate(-214.764 -307.042)" fill="#72798e"/>
          <g id="_Group_6" data-name="&lt;Group&gt;" transform="translate(47.78 76.917)">
            <path id="_Path_9" data-name="&lt;Path&gt;" d="M268.592,399.808a39.583,39.583,0,0,0,4.13.168,42.572,42.572,0,0,0,11.022-1.273,24.993,24.993,0,0,0,2.569-.888c.1-4.034.312-8.044.288-12.078q0-2.329-.1-4.634-.1-.024-.168-.048a22.738,22.738,0,0,0-11.814-.96,30.727,30.727,0,0,0-3.53.96q-.888.288-1.8.624-.216.1-.456.192C268.544,387.85,268.616,393.829,268.592,399.808Z" transform="translate(-268.592 -379.714)" fill="#63697e"/>
          </g>
          <g id="_Group_7" data-name="&lt;Group&gt;" transform="translate(5.584 18.709)">
            <path id="_Compound_Path_" data-name="&lt;Compound Path&gt;" d="M127.5,194.86c7.2-1.441,28.022-6.6,28.022-6.6l4.971-13.663q2.017-8.332,4.01-16.64c1.369-5.715,2.809-11.574,6.819-16.544a10.31,10.31,0,0,1,5.019-3.674,17.135,17.135,0,0,1,6.075-.312,206.365,206.365,0,0,1,25.357,3.434c2.881.552,5.907,1.273,7.876,2.954,2.761,2.353,2.545,5.859,2.065,8.957-1.345,9.053-8.524,35.874-10.781,40.076a24.263,24.263,0,0,1-12.294,11.094,51.066,51.066,0,0,1-7.06,2.065q-11.454,2.665-23.124,4.73a20.3,20.3,0,0,1-4.37.456,20.63,20.63,0,0,1-5.691-1.273q-12.2-4.034-24.4-8.044c-2.233-.744-4.682-1.441-6.1-2.929C123.344,198.366,120.295,196.3,127.5,194.86Z" transform="translate(-122.785 -137.304)" fill="#7d9cc8"/>
          </g>
          <g id="_Group_8" data-name="&lt;Group&gt;" transform="translate(37.575 26.008)">
            <path id="_Path_10" data-name="&lt;Path&gt;" d="M133.872,227.922a109.016,109.016,0,0,1,13.3-3.074c3.938-.624,8.044-.6,11.886-1.777a16.135,16.135,0,0,0,8.02-5.115,16.641,16.641,0,0,0,3.674-9.725c.192-2.017.216-4.058.5-6.075.36-2.353.744-4.682,1.153-7.012a105.361,105.361,0,0,1,3.194-13.591c1.537-4.8,3.6-11.934,8.86-13.855,1.9,2.329,1.7,5.4,1.273,8.164-1.345,9.053-8.524,35.874-10.781,40.076a24.263,24.263,0,0,1-12.294,11.094,51.076,51.076,0,0,1-7.06,2.065q-11.454,2.665-23.124,4.73a20.3,20.3,0,0,1-4.37.456,18.881,18.881,0,0,1-5.307-1.153C125.708,230.012,129.886,229.075,133.872,227.922Z" transform="translate(-122.803 -167.7)" fill="#5669ab"/>
          </g>
          <g id="_Group_9" data-name="&lt;Group&gt;" transform="translate(5.583 76.89)">
            <path id="_Path_11" data-name="&lt;Path&gt;" d="M382.989,379.6a60.875,60.875,0,0,1,13.375,2.978,68.179,68.179,0,0,1,11.5,5.283c2.065,1.177,4.01,2.665,6.123,3.77a13.7,13.7,0,0,0-2.329,2.185q-11.886-3.914-23.748-7.828c-2.233-.744-4.682-1.441-6.1-2.929C381.332,382.554,379,380.969,382.989,379.6Z" transform="translate(-380.7 -379.6)" fill="#5669ab"/>
          </g>
          <g id="_Group_10" data-name="&lt;Group&gt;" transform="translate(18.349 56.311)">
            <path id="_Path_12" data-name="&lt;Path&gt;" d="M353.038,295.939c.792.24,1.753.672,1.825,1.513.048.864-.912,1.417-1.729,1.729a133.823,133.823,0,0,1-17.961,6.051,24,24,0,0,1-8.044.744,10.254,10.254,0,0,1-6.988-3.674c-.336-.456-.648-1.129-.288-1.609a1.421,1.421,0,0,1,.672-.432,87.988,87.988,0,0,1,22.74-6.075,18.95,18.95,0,0,1,6.051-.072,7.4,7.4,0,0,1,4.995,3.146" transform="translate(-319.693 -293.897)" fill="#9ebee3"/>
          </g>
          <g id="_Group_11" data-name="&lt;Group&gt;" transform="translate(18.359 60.105)">
            <path id="_Path_13" data-name="&lt;Path&gt;" d="M324.609,314.695a11.911,11.911,0,0,0,5.859.816,34.039,34.039,0,0,0,6.339-1.777,66.937,66.937,0,0,1,6.771-2.113,46.322,46.322,0,0,1,5.139-.7,26.424,26.424,0,0,0,6.219-1.225c-.12.744-.984,1.2-1.7,1.489a133.829,133.829,0,0,1-17.961,6.051,24,24,0,0,1-8.044.744,10.254,10.254,0,0,1-6.988-3.674,1.887,1.887,0,0,1-.432-1.249C321.416,313.614,323.024,314.142,324.609,314.695Z" transform="translate(-319.8 -309.7)" fill="#5669ab"/>
          </g>
          <g id="_Group_12" data-name="&lt;Group&gt;" transform="translate(45.057 27.154)">
            <path id="_Path_14" data-name="&lt;Path&gt;" d="M267.93,202.469a3.144,3.144,0,0,0,1.129.576,19.878,19.878,0,0,0,6.915,1.1l12.294-31.336a4.067,4.067,0,0,0-3.266,0,11.778,11.778,0,0,0-2.881,1.729,18.32,18.32,0,0,0-3.722,3.338,20.417,20.417,0,0,0-2.041,3.77q-.624,1.417-1.273,2.809-.72,1.537-1.489,3.074-2.545,5.211-5.355,10.277a7.1,7.1,0,0,0-.984,2.329A2.428,2.428,0,0,0,267.93,202.469Z" transform="translate(-267.2 -172.471)" fill="#e488a0"/>
          </g>
          <g id="_Group_13" data-name="&lt;Group&gt;" transform="translate(17.529 53.906)">
            <path id="_Path_15" data-name="&lt;Path&gt;" d="M338.047,293.877a12.382,12.382,0,0,1,5.715-4.322,45.539,45.539,0,0,1,6.987-1.945q4.826-1.1,9.581-2.593a23.725,23.725,0,0,1,4.682-1.129,4.056,4.056,0,0,1,3.458,1.321,2.9,2.9,0,0,1,.648,3.146,9.011,9.011,0,0,1-1.225.912,14.117,14.117,0,0,1-3.506,1.345,96,96,0,0,1-13.759,2.665c-2.041.24-4.226.456-5.859,1.729-1.3,1.008-2.257,2.713-3.914,2.954a3.3,3.3,0,0,1,.672-2.761l-2.305,1.921a2.935,2.935,0,0,1,.816-2.881l-2.257,1.1C337.471,294.885,337.735,294.309,338.047,293.877Z" transform="translate(-337.643 -283.884)" fill="#e488a0"/>
          </g>
          <path id="_Path_16" data-name="&lt;Path&gt;" d="M209.761,168.532c4.106.984,14,1.465,13.255,9.965s-11.622,29.151-11.622,29.151-22.451-8.14-22.86-8c3.818-9.941,2.761-19.474,7.156-24.78,4.418-5.307,4.73-7.684,14.071-6.339Z" transform="translate(-138.041 -142.043)" fill="#3e306e"/>
          <path id="_Path_17" data-name="&lt;Path&gt;" d="M265.324,184a16.519,16.519,0,0,0-4.8,8.332c-1.225,5.379-1.225,10.95-3.722,15.7" transform="translate(-196.702 -154.078)" fill="none" stroke="#291756" stroke-miterlimit="10" stroke-width="3.4"/>
          <path id="_Path_18" data-name="&lt;Path&gt;" d="M244.156,270.406s-8.6,1.657-14.888.432a23.714,23.714,0,0,1-9.629-3.938l-6.94,15.7,7.756,4.754,25.789-3.506Z" transform="translate(-167.033 -217.072)" fill="#1f123e"/>
          <path id="_Path_19" data-name="&lt;Path&gt;" d="M319.231,322.975c.816,5.691,1.633,10.061-11.382,11.766s-27.062,4.154-29.535,4.73-5.163,2.473-5.163,4.946c0,2.449,3.506,29.2,2.881,29.391a33.372,33.372,0,0,1-10.325,1.129,75.006,75.006,0,0,1-8.26-1.129s.408-28.454,3.938-35.85c3.506-7.4,12.846-11.67,30.976-15.56C310.515,318.532,319.231,322.975,319.231,322.975Z" transform="translate(-251.161 -258.043)" fill="#1f123e"/>
          <path id="_Path_20" data-name="&lt;Path&gt;" d="M272.75,330.053c.84,6.2,1.657,10.949-11.358,12.8s-27.062,4.538-29.535,5.163c-2.5.624-5.163,2.689-5.163,5.379s3.506,31.816,2.881,32.008a30.828,30.828,0,0,1-10.325,1.249,70.638,70.638,0,0,1-8.26-1.249s.408-30.976,3.914-39.044c3.506-8.044,12.846-12.7,31-16.929C264.034,325.2,272.75,330.053,272.75,330.053Z" transform="translate(-193.538 -263.272)" fill="#291756"/>
          <g id="_Group_14" data-name="&lt;Group&gt;" transform="translate(0 121.48)">
            <path id="_Path_21" data-name="&lt;Path&gt;" d="M475.133,568.95c.12-.1.24-.144.336-.216.937-.408,1.9-.768,2.857-1.1q3.074-1.1,6.171-2.209a9.722,9.722,0,0,0,2.377.264,13.251,13.251,0,0,0,3.218-.384q.264,2.257.528,4.538l-16.04,1.393C473.812,570.487,474.316,569.55,475.133,568.95Z" transform="translate(-474.2 -565.3)" fill="#1f123e"/>
          </g>
          <g id="_Group_15" data-name="&lt;Group&gt;" transform="translate(41.155 63.891)">
            <path id="_Path_22" data-name="&lt;Path&gt;" d="M226.3,328.068c1.033.312,2.257.864,2.329,1.945.072,1.129-1.177,1.825-2.209,2.233-7.564,2.93-15.128,5.883-23.028,7.732a29.769,29.769,0,0,1-10.277.961,13.105,13.105,0,0,1-8.957-4.706c-.432-.6-.816-1.441-.384-2.041a1.952,1.952,0,0,1,.888-.6,114.134,114.134,0,0,1,29.1-7.78,25.463,25.463,0,0,1,7.756-.072,9.629,9.629,0,0,1,6.411,4.034" transform="translate(-183.588 -325.467)" fill="#9ebee3"/>
          </g>
          <g id="_Group_16" data-name="&lt;Group&gt;" transform="translate(41.155 67.069)">
            <path id="_Path_23" data-name="&lt;Path&gt;" d="M184.666,343.646l.24-.1a4.243,4.243,0,0,1,.6.1c3.89.72,6.8,3.89,10.661,4.706,3.722.768,7.42-.865,10.853-2.137,6.867-2.521,13.615-5.379,20.6-7.516a1.74,1.74,0,0,1,1.009,1.369c.072,1.129-1.177,1.825-2.209,2.233-7.564,2.93-15.128,5.883-23.028,7.732a29.768,29.768,0,0,1-10.277.961,13.105,13.105,0,0,1-8.957-4.706c-.432-.6-.816-1.441-.384-2.041a1.952,1.952,0,0,1,.888-.6Z" transform="translate(-183.588 -338.7)" fill="#5669ab"/>
          </g>
          <g id="_Group_17" data-name="&lt;Group&gt;" transform="translate(61.232 5.163)">
            <path id="_Path_24" data-name="&lt;Path&gt;" d="M203.69,96.045c.336,1.7,2.089,2.785,3.794,3.1a31.141,31.141,0,0,0,5.187.168,25.353,25.353,0,0,0,7.564-1.081,6.041,6.041,0,0,0,2.881-3.65,14.92,14.92,0,0,0,.648-4.73,10.037,10.037,0,0,0-.576-4.466c-1.393-3.146-5.307-4.178-8.74-4.442q-.648-.048-1.321-.048a11.9,11.9,0,0,0-3.962.552,5.438,5.438,0,0,0-2.905,2.257,4.139,4.139,0,0,0-.288.6,4.333,4.333,0,0,0-.192.5c-.6,1.921-.24,4.178-.792,6.2C204.506,92.683,203.33,94.316,203.69,96.045Z" transform="translate(-203.623 -80.891)" fill="#eaadc1"/>
          </g>
          <g id="_Group_18" data-name="&lt;Group&gt;" transform="translate(62.794 14.458)">
            <g id="_Group_19" data-name="&lt;Group&gt;">
              <path id="_Path_25" data-name="&lt;Path&gt;" d="M274.079,121.569a.985.985,0,0,1,0-1.969A.985.985,0,0,1,274.079,121.569Z" transform="translate(-273.125 -119.6)" fill="#1f123e"/>
            </g>
            <g id="_Group_20" data-name="&lt;Group&gt;" transform="translate(0.264 0.288)">
              <path id="_Path_26" data-name="&lt;Path&gt;" d="M277.2,121.592a.4.4,0,0,1,0-.792A.4.4,0,0,1,277.2,121.592Z" transform="translate(-276.825 -120.8)" fill="#fff"/>
            </g>
          </g>
          <g id="_Group_21" data-name="&lt;Group&gt;" transform="translate(64.099 14.107)">
            <g id="_Group_22" data-name="&lt;Group&gt;">
              <path id="_Path_27" data-name="&lt;Path&gt;" d="M268.292,122.09a2.215,2.215,0,0,1-.768-.168c-.216-.072-.456-.168-.7-.264a1.193,1.193,0,0,1-.576-.288.511.511,0,0,1-.072-.576c.1-.168.288-.312.408-.5a4.886,4.886,0,0,0,.312-.576,2.555,2.555,0,0,0,.168-.624,6.327,6.327,0,0,0,.048-.672.288.288,0,0,1,.576,0,2.955,2.955,0,0,1-.216,1.2,4.675,4.675,0,0,1-.576,1.081,2.617,2.617,0,0,0-.192.216c-.024.024-.12.1-.12.144,0,.1.432.216.5.24a5.59,5.59,0,0,1,.672.264,1.961,1.961,0,0,1,.624.336A.126.126,0,0,1,268.292,122.09Z" transform="translate(-266.121 -118.137)" fill="#df6986"/>
            </g>
          </g>
          <g id="_Group_23" data-name="&lt;Group&gt;" transform="translate(58.76 24.327)">
            <g id="_Group_24" data-name="&lt;Group&gt;">
              <path id="_Path_28" data-name="&lt;Path&gt;" d="M297.743,160.724c-.024,0-.024-.024,0-.024S297.767,160.724,297.743,160.724Z" transform="translate(-297.725 -160.7)" fill="#09094a"/>
            </g>
          </g>
          <g id="_Group_25" data-name="&lt;Group&gt;" transform="translate(40.403 31.001)">
            <path id="_Path_29" data-name="&lt;Path&gt;" d="M186.24,234.021c.84-.48,1.681-.961,2.5-1.465a3.414,3.414,0,0,0-.7,3.386q1.249-1.2,2.473-2.4a3.817,3.817,0,0,0-.528,3.218c1.873-.432,2.833-2.449,4.25-3.746,1.729-1.585,4.2-2.017,6.531-2.473a109.043,109.043,0,0,0,15.512-4.25,14.758,14.758,0,0,0,3.89-1.825A13.9,13.9,0,0,0,223,221.606a39.5,39.5,0,0,0,7.2-14.143,28.011,28.011,0,0,0,.984-5.811,26.9,26.9,0,0,0-.576-7.708c-.552-2.473-1.9-5.355-4.49-5.451-3.6-.168-5.619,10.325-6.339,12.943-.384,1.345-.72,2.713-1.057,4.082a84.754,84.754,0,0,1-2.881,9.989,8.093,8.093,0,0,1-1.921,3.242,8.244,8.244,0,0,1-2.785,1.513q-5.295,2.089-10.733,3.794a50.808,50.808,0,0,0-7.828,2.833,14.551,14.551,0,0,0-6.171,5.427C186.1,232.844,185.856,233.54,186.24,234.021Z" transform="translate(-186.042 -188.492)" fill="#eaadc1"/>
          </g>
          <g id="_Group_26" data-name="&lt;Group&gt;" transform="translate(64.613 63.15)">
            <g id="_Group_27" data-name="&lt;Group&gt;" transform="translate(33.71 20.872)">
              <g id="_Group_28" data-name="&lt;Group&gt;">
                <path id="_Path_30" data-name="&lt;Path&gt;" d="M.77,417.683a38.224,38.224,0,0,0-6.579,7.852,1.294,1.294,0,0,0-.24.72c.024.288.288.5.5.72a222.814,222.814,0,0,0,18.609,13.879,2.322,2.322,0,0,0,1.7.552,2.245,2.245,0,0,0,1.033-.744,92.83,92.83,0,0,0,10.181-12.774,7.14,7.14,0,0,0,1.345-2.906,5.169,5.169,0,0,0-1.633-4.178,16.627,16.627,0,0,0-3.77-2.641A75.539,75.539,0,0,1,11.431,410.6a4.548,4.548,0,0,0-2.161-1.273c-1.537-.216-2.785,1.129-3.722,2.329q-4.178,5.331-8.332,10.661" transform="translate(6.052 -409.304)" fill="#919cbb"/>
              </g>
              <g id="_Group_29" data-name="&lt;Group&gt;" transform="translate(5.212 5.351)">
                <path id="_Path_31" data-name="&lt;Path&gt;" d="M15.462,434.832q-3.218,3.386-6.411,6.771a1.208,1.208,0,0,0-.384.648,1.161,1.161,0,0,0,.576.888q6.315,4.97,12.919,9.485a2.458,2.458,0,0,0,2.041.648,2.508,2.508,0,0,0,1.033-.84q3.674-4.2,7.324-8.428a2.46,2.46,0,0,0,.768-1.369,2.133,2.133,0,0,0-.336-1.249,13.267,13.267,0,0,0-3.89-3.866q-3.578-2.641-7.132-5.283a3.279,3.279,0,0,0-1.177-.624,3,3,0,0,0-2.209.792,25.047,25.047,0,0,0-5.715,5.979" transform="translate(-8.666 -431.588)" fill="#aa2e2e"/>
              </g>
              <g id="_Group_30" data-name="&lt;Group&gt;" transform="translate(0.876 2.039)">
                <path id="_Path_32" data-name="&lt;Path&gt;" d="M98.831,421.35l-3.05-2.953a1.651,1.651,0,0,0-1.129-.6,1.47,1.47,0,0,0-.96.552,22.475,22.475,0,0,0-2.065,2.209c-.192.216-.384.48-.312.744a.974.974,0,0,0,.48.552c1.681,1.081,3.41,2.065,5.019,3.266,1.008.72,3.65-2.593,3.65-2.593Z" transform="translate(-91.3 -417.795)" fill="#919cbb"/>
              </g>
            </g>
            <g id="_Group_31" data-name="&lt;Group&gt;" transform="translate(0)">
              <g id="_Group_32" data-name="&lt;Group&gt;">
                <path id="_Path_33" data-name="&lt;Path&gt;" d="M158.379,348.1a19.124,19.124,0,0,1-2.065-1.873q-.48-.48-1.009-.936-.12-.1-.264-.216a.962.962,0,0,1-.144-.12c.024.024.1.072.024,0l-.576-.384a10.49,10.49,0,0,0-1.153-.7l-.24-.1c.144.048-.168-.072-.192-.072a4.335,4.335,0,0,0-.648-.192,5.6,5.6,0,0,0-.552-.12c.192.024-.144-.024-.192-.024h-.36a7.51,7.51,0,0,0-1.465.1c-.864.072-1.7.216-2.665.384-.888.168-1.753.36-2.617.48a16.919,16.919,0,0,1-5.715.1,19.673,19.673,0,0,1-5.619-2.017,21.747,21.747,0,0,1-4.514-3.29,20.685,20.685,0,0,1-3.434-4.466,11.126,11.126,0,0,1-1.657-5.691,5.884,5.884,0,0,1,1.057-3.674,9.94,9.94,0,0,1,3.05-2.305c.36-.192.72-.36,1.1-.528a.667.667,0,0,1,.672,1.153c-.648.384-1.321.72-1.993,1.081-.264.144-.528.288-.792.456q-.1.072-.168.12a.375.375,0,0,1-.1.072h0l-.336.288-.24.24-.144.144c-.024.048-.144.192-.048.1a2.968,2.968,0,0,0-.408.648l-.048.1c.024,0,.048-.1.024-.024a.937.937,0,0,0-.072.192,3.037,3.037,0,0,0-.12.408q-.048.216-.1.408a.453.453,0,0,1-.024.144c0-.024.024-.1,0,0a1.614,1.614,0,0,1-.024.264,9.534,9.534,0,0,0,1.1,5.187,16.808,16.808,0,0,0,3.386,4.2,20.19,20.19,0,0,0,4.3,3.049,18.234,18.234,0,0,0,5.163,1.9,7.388,7.388,0,0,0,1.273.168q.648.048,1.321.048.672-.024,1.321-.072.288-.024.576-.072c.192-.024.072,0,.024,0a.454.454,0,0,0,.144-.024q.168-.024.36-.048c1.825-.288,3.6-.7,5.451-.912a11.019,11.019,0,0,1,2.809-.1,7.69,7.69,0,0,1,2.593.864,11.486,11.486,0,0,1,2.233,1.609,14.194,14.194,0,0,1,1.945,2.041,6.461,6.461,0,0,1,.672,1.1.663.663,0,0,1-.912.912Z" transform="translate(-123.322 -322.381)" fill="#72798e"/>
              </g>
            </g>
            <g id="_Group_33" data-name="&lt;Group&gt;" transform="translate(48.398 42)">
              <g id="_Group_34" data-name="&lt;Group&gt;">
                <path id="_Path_34" data-name="&lt;Path&gt;" d="M45.171,499a3.382,3.382,0,0,1-.888,1.345,8.409,8.409,0,0,1-1.1.936,3.025,3.025,0,0,1-1.345.48,2.153,2.153,0,0,1-1.153-.336,3.45,3.45,0,0,1-1.009-.648c-.288-.264-.552-.552-.84-.816q-.456-.408-.936-.792a7.836,7.836,0,0,1-.96-.816.576.576,0,0,1-.168-.6.7.7,0,0,1,.168-.288.654.654,0,0,1,.744-.1,6.424,6.424,0,0,1,1.777,1.441q.384.384.72.792a3.684,3.684,0,0,0,.7.672.39.39,0,0,0,.216.12c-.144-.024-.024,0,.048-.048.072-.024.048-.024.024,0,0,0,.144-.168.1-.1-.072.072.072-.1.072-.12a2.184,2.184,0,0,1,.168-.24,3.439,3.439,0,0,1,.48-.552,8.756,8.756,0,0,1,1.033-.84,3.141,3.141,0,0,1,1.345-.552A.865.865,0,0,1,45.171,499Z" transform="translate(-36.732 -497.294)" fill="#fff"/>
              </g>
            </g>
            <g id="_Group_35" data-name="&lt;Group&gt;" transform="translate(45.135 39.304)">
              <g id="_Group_36" data-name="&lt;Group&gt;">
                <path id="_Path_35" data-name="&lt;Path&gt;" d="M76.5,488.548a.267.267,0,0,0-.12.024.79.79,0,0,1-.528-.12,2.687,2.687,0,0,0-.288-.168,5.159,5.159,0,0,1-.456-.312,1.048,1.048,0,0,1-.24-.288.945.945,0,0,1-.144-.5.866.866,0,0,1,.144-.48l-.1.672h0l.1.192a3.57,3.57,0,0,1-.264-.408.533.533,0,0,1-.072-.168.591.591,0,0,1-.024-.288.652.652,0,0,1,.192-.408.712.712,0,0,1,.336-.192.592.592,0,0,1,.288-.024.746.746,0,0,1,.264.1,4,4,0,0,1,.456.216,4.374,4.374,0,0,0-.432-.12h.024a3.811,3.811,0,0,0-.456.12,1.689,1.689,0,0,1,.24-.12,1.35,1.35,0,0,0,.264-.024,1.086,1.086,0,0,1,.384.072.761.761,0,0,1,.288.216.069.069,0,0,1,.048.024.279.279,0,0,0,.072.048c.072.1.144.168.216.264.1.12.24.264.336.408a1.382,1.382,0,0,1,.12.624.615.615,0,0,1-.192.456.788.788,0,0,0-.12.1A.672.672,0,0,1,76.5,488.548Z" transform="translate(-74.5 -486.067)" fill="#fff"/>
              </g>
            </g>
            <g id="_Group_37" data-name="&lt;Group&gt;" transform="translate(47.501 27.709)">
              <g id="_Group_38" data-name="&lt;Group&gt;">
                <path id="_Path_36" data-name="&lt;Path&gt;" d="M65.06,438.19a3.774,3.774,0,0,1-.288.36l-.288.288a8.586,8.586,0,0,0-.624.7c-.048.048.1-.12,0,0a.28.28,0,0,0-.048.072l-.144.192a.784.784,0,0,1-.1.12q.072-.1.024-.048l-.048.1-.144.192a3.056,3.056,0,0,1-.312.456,4.309,4.309,0,0,1-.312.336.581.581,0,0,1-.7.1.618.618,0,0,1-.264-.648c.072-.168.144-.36.216-.528a3.341,3.341,0,0,1,.36-.456,3.682,3.682,0,0,1,.7-.672,5.946,5.946,0,0,1,.816-.6,3.86,3.86,0,0,1,.432-.24,2.811,2.811,0,0,1,.48-.12A.244.244,0,0,1,65.06,438.19Z" transform="translate(-61.799 -437.776)" fill="#fff"/>
              </g>
            </g>
            <g id="_Group_39" data-name="&lt;Group&gt;" transform="translate(45.79 22.888)">
              <g id="_Group_40" data-name="&lt;Group&gt;">
                <path id="_Path_37" data-name="&lt;Path&gt;" d="M71.823,418.228a1.611,1.611,0,0,0-.336.216,3.506,3.506,0,0,0-.36.24,3.123,3.123,0,0,0-.36.24c-.072.024-.048.024,0-.024l-.1.1a1.568,1.568,0,0,1-.168.144.79.79,0,0,0-.12.1l.048-.048a.376.376,0,0,1-.1.072,1.575,1.575,0,0,1-.168.144,2.077,2.077,0,0,1-.336.312,4.811,4.811,0,0,1-.384.336,1.4,1.4,0,0,1-.6.216.391.391,0,0,1-.408-.408,1.756,1.756,0,0,1,.456-1.057c.12-.144.264-.264.384-.384a2.551,2.551,0,0,1,.5-.384,2.475,2.475,0,0,1,1.081-.336,3.592,3.592,0,0,1,.528.048,3.89,3.89,0,0,1,.432.24C71.9,418.06,71.919,418.18,71.823,418.228Z" transform="translate(-68.436 -417.7)" fill="#fff"/>
              </g>
            </g>
            <g id="_Group_41" data-name="&lt;Group&gt;" transform="translate(35.13 34.375)">
              <g id="_Group_42" data-name="&lt;Group&gt;">
                <path id="_Path_38" data-name="&lt;Path&gt;" d="M118.657,467.04a4.822,4.822,0,0,0-.432.672,1.932,1.932,0,0,0-.168.312.95.95,0,0,1-.24.36.889.889,0,0,1-.528.288q.216-.12.408-.216a2.916,2.916,0,0,0-.24.216.776.776,0,0,1-.816.144.735.735,0,0,1-.456-.672v-.312a4.36,4.36,0,0,0,.12.432,1.053,1.053,0,0,1-.168-.576,1.362,1.362,0,0,1,.192-.624q.1-.168.192-.36.192-.336.408-.672a1.046,1.046,0,0,1,.6-.456,1,1,0,0,1,1.129,1.465Z" transform="translate(-116.136 -465.536)" fill="#fff"/>
              </g>
            </g>
          </g>
          <g id="_Group_43" data-name="&lt;Group&gt;" transform="translate(67.764 14.77)">
            <g id="_Group_44" data-name="&lt;Group&gt;">
              <path id="_Path_39" data-name="&lt;Path&gt;" d="M252.249,123.181a1.141,1.141,0,0,1,0-2.281A1.141,1.141,0,0,1,252.249,123.181Z" transform="translate(-251.15 -120.9)" fill="#1f123e"/>
            </g>
            <g id="_Group_45" data-name="&lt;Group&gt;" transform="translate(0.288 0.336)">
              <path id="_Path_40" data-name="&lt;Path&gt;" d="M255.913,123.212a.456.456,0,0,1,0-.912A.456.456,0,0,1,255.913,123.212Z" transform="translate(-255.462 -122.3)" fill="#fff"/>
            </g>
          </g>
          <g id="_Group_46" data-name="&lt;Group&gt;" transform="translate(69.169 12.993)">
            <g id="_Group_47" data-name="&lt;Group&gt;">
              <path id="_Path_41" data-name="&lt;Path&gt;" d="M254.2,113.6a.048.048,0,1,1,0-.1C254.252,113.5,254.252,113.6,254.2,113.6Z" transform="translate(-254.15 -113.5)" fill="#1f123e"/>
            </g>
          </g>
          <g id="_Group_48" data-name="&lt;Group&gt;" transform="translate(67.634 12.273)">
            <g id="_Group_49" data-name="&lt;Group&gt;">
              <path id="_Path_42" data-name="&lt;Path&gt;" d="M250.114,111.989a4.4,4.4,0,0,0-1.249-.5q-.144-.024-.312-.048c.12.024-.048,0-.072,0H248a1.152,1.152,0,0,1-.288,0,.415.415,0,0,1-.168-.7,1.221,1.221,0,0,1,.768-.24,2.431,2.431,0,0,1,.744.1,4.742,4.742,0,0,1,1.417.768.361.361,0,1,1-.36.624Z" transform="translate(-247.421 -110.5)" fill="#1f123e"/>
            </g>
          </g>
          <g id="_Group_50" data-name="&lt;Group&gt;" transform="translate(25.713 62.242)">
            <path id="_Path_43" data-name="&lt;Path&gt;" d="M424.786,318.6c-.432.1-.528.624-.576,1.032q-.1.912-.168,1.825c-.048.384-.168.888-.552.96-.408.072-.7-.36-.864-.744q-.6-1.345-1.225-2.689" transform="translate(-421.4 -318.6)" fill="#e488a0"/>
          </g>
          <g id="_Group_51" data-name="&lt;Group&gt;" transform="translate(74.962 15.506)">
            <g id="_Group_52" data-name="&lt;Group&gt;">
              <path id="_Path_44" data-name="&lt;Path&gt;" d="M220.048,125.148q.024-.168.048-.312a1.206,1.206,0,0,1,.12-.312l-.1.192v.456a1.19,1.19,0,0,1,0-.5.958.958,0,0,1,.432-.576,1.092,1.092,0,0,1,.984-.024,1.024,1.024,0,0,1,.528.48,1.546,1.546,0,0,1,.168.672,4,4,0,0,1-.1,1.2,2.171,2.171,0,0,1-.264.648,1.576,1.576,0,0,1-.576.672,1.041,1.041,0,0,1-1.057,0,1.158,1.158,0,0,1-.5-.7,3.976,3.976,0,0,1-.072-.768,3.223,3.223,0,0,1,.1-.84q.048-.168.1-.312c.048-.12.1-.264.144-.36a1.3,1.3,0,0,1,.456-.432,1.021,1.021,0,0,1,1.537.864,1.3,1.3,0,0,1-.192.72q-.048.1-.12.216a1.679,1.679,0,0,0,.12-.24,2.323,2.323,0,0,0-.192.648q.024-.12.048-.264-.024.264-.024.5a1.223,1.223,0,0,0-.024-.24.184.184,0,0,0,.024.072l-.1-.24v.024l-.144-.192.024.024-.432-.24h.024l-.24-.048h0l-.24.048.024-.024a1.678,1.678,0,0,1-.24.12.021.021,0,0,1,.024-.024l-.192.144a.953.953,0,0,0,.12-.144l-.144.192a1.262,1.262,0,0,0,.192-.312q-.048.1-.1.216a1.784,1.784,0,0,0,.12-.5,1.223,1.223,0,0,0-.024.24,4.643,4.643,0,0,0,.024-.816,1.619,1.619,0,0,0,.024.264.1.1,0,0,0-.024-.072q.048.12.1.216a.069.069,0,0,0-.024-.048l.144.192V125.6a1.565,1.565,0,0,0,.168.144l-.024-.024q.1.048.216.1h-.048a1.222,1.222,0,0,1,.24.024h-.048a1,1,0,0,1-.384-.072,1.067,1.067,0,0,1-.456-.408l.144.192h-.024q.192.1.384.216h0a1.113,1.113,0,0,1,.216.024h-.024a.893.893,0,0,1,.216-.024.213.213,0,0,0-.1.024.534.534,0,0,0,.168-.072.1.1,0,0,1-.072.024.7.7,0,0,1-.72,0A.66.66,0,0,1,220.048,125.148Z" transform="translate(-219.664 -123.962)" fill="#d65273"/>
            </g>
          </g>
          <g id="_Group_53" data-name="&lt;Group&gt;" transform="translate(68.191 19.773)">
            <path id="_Path_45" data-name="&lt;Path&gt;" d="M228,151.426a3.084,3.084,0,0,0,2.353.768,7.986,7.986,0,0,0,2.978-.48,15.424,15.424,0,0,0,1.633-.888c.24-2.881.384-5.787.384-8.716a29.8,29.8,0,0,0-6.7-.312.645.645,0,0,0-.432.192,1.321,1.321,0,0,0-.12.624c0,.985-.024,1.969-.024,2.929-.024,1.057-.048,2.089-.048,3.122Q228,150.033,228,151.426Z" transform="translate(-228 -141.733)" fill="#eaadc1"/>
          </g>
          <path id="_Path_46" data-name="&lt;Path&gt;" d="M235.2,156.375a3.8,3.8,0,0,0,1.1-.072c.912-.168,3.41-.528,4.49-4.418,0-.024-.072.048-.144.1a12.842,12.842,0,0,1-5.4,1.273C235.224,154.31,235.2,155.343,235.2,156.375Z" transform="translate(-166.985 -129.671)" fill="#df6986"/>
          <g id="_Group_54" data-name="&lt;Group&gt;" transform="translate(67.83 61.719)">
            <path id="_Path_47" data-name="&lt;Path&gt;" d="M243.263,320.857l2.161-1.057c.12-.072.264-.144.288-.288a.378.378,0,0,0-.1-.312,11.153,11.153,0,0,0-1.777-2.569.478.478,0,0,0-.288-.192.491.491,0,0,0-.408.072,15.619,15.619,0,0,0-1.969.912q1.081,1.825,2.089,3.674" transform="translate(-241.174 -316.419)" fill="#fff"/>
          </g>
          <g id="_Group_55" data-name="&lt;Group&gt;" transform="translate(50.941 117.27)">
            <g id="_Group_56" data-name="&lt;Group&gt;" transform="translate(0)">
              <path id="_Path_48" data-name="&lt;Path&gt;" d="M279.377,548.28q-.72.264-1.465.5c-.456.144-.912.36-1.393.48a22.692,22.692,0,0,1-3.1.576,33.973,33.973,0,0,1-6.051.312c-.552-.024-1.129-.12-1.7-.168a7.494,7.494,0,0,1-1.777-.336.539.539,0,0,1,.144-1.056c.984-.1,1.969.12,2.953.072s1.969.024,2.978.024a44.21,44.21,0,0,0,5.907-.48c.552-.072,1.1-.1,1.681-.144.552-.072,1.129-.192,1.7-.288A.259.259,0,0,1,279.377,548.28Z" transform="translate(-263.497 -547.768)" fill="#919cbb"/>
            </g>
          </g>
          <g id="_Group_57" data-name="&lt;Group&gt;" transform="translate(12.398 126.715)">
            <path id="_Path_49" data-name="&lt;Path&gt;" d="M423.549,590.75a1.611,1.611,0,0,1,.336-.216c.912-.408,1.873-.768,2.833-1.1q3.074-1.1,6.171-2.209a11.219,11.219,0,0,0,2.377.264,13.449,13.449,0,0,0,3.242-.384q.24,2.257.5,4.538L423,593.031C422.2,592.287,422.709,591.35,423.549,590.75Z" transform="translate(-422.6 -587.1)" fill="#1f123e"/>
          </g>
          <g id="_Group_58" data-name="&lt;Group&gt;" transform="translate(62.842 11.785)">
            <g id="_Group_59" data-name="&lt;Group&gt;">
              <path id="_Path_50" data-name="&lt;Path&gt;" d="M274.165,109.387a.705.705,0,0,1-.168.024,1.238,1.238,0,0,1-.264-.048.268.268,0,0,1,.12.024,1.946,1.946,0,0,0-.528,0,.4.4,0,0,1,.12-.024,1.33,1.33,0,0,0-.336.1.934.934,0,0,1,.12-.048.762.762,0,0,1-.216.072.461.461,0,0,1-.36-.84,1.118,1.118,0,0,1,.48-.144,1.193,1.193,0,0,1,.408-.024c.1.024.192.024.264.048q.144.048.264.1a1.13,1.13,0,0,1,.216.144.564.564,0,0,1,.12.192A.283.283,0,0,1,274.165,109.387Z" transform="translate(-272.419 -108.467)" fill="#1f123e"/>
            </g>
          </g>
          <path id="_Path_51" data-name="&lt;Path&gt;" d="M240.4,86.057c.84.048,1.033.552,2.209.864a2.848,2.848,0,0,0,2.425-.672,6.4,6.4,0,0,0,2.017,1.561,2.015,2.015,0,0,0,1.921-.36l.408-2.233-2.065-1.753-3.722-.264a5.437,5.437,0,0,0-2.905,2.257,4.134,4.134,0,0,0-.288.6Z" transform="translate(-176.82 -77.482)" fill="#df6986"/>
          <g id="_Group_60" data-name="&lt;Group&gt;" transform="translate(60.778)">
            <path id="_Path_52" data-name="&lt;Path&gt;" d="M197.836,83.4q.024-1.369.024-2.737a.776.776,0,0,1,.072-.408,1.007,1.007,0,0,1,.456-.216,3.51,3.51,0,0,0,2.353-2.425,3.4,3.4,0,0,0-.984-3.194,1.889,1.889,0,0,0-1.9-.5,2.231,2.231,0,0,0-1.081,1.249,3.382,3.382,0,0,1-.888,1.417,1.061,1.061,0,0,1-1.513-.1,1.387,1.387,0,0,1,.048-1.153,22.417,22.417,0,0,1,1.009-2.4c.1-.216.216-.48.1-.7a1.046,1.046,0,0,0-.336-.312c-1.177-.816-1.177-2.473-1.081-3.866a1.868,1.868,0,0,1-3.146-1.033,4.749,4.749,0,0,1-2.113.985,1.57,1.57,0,0,1-1.8-1.129,1.98,1.98,0,0,1-1.945.7,2.56,2.56,0,0,1-1.7-1.225,1.567,1.567,0,0,1-.144-1.417.906.906,0,0,1,1.249-.408,2.149,2.149,0,0,1,.36-2.4,1.482,1.482,0,0,1,2.257.288,1.278,1.278,0,0,1,.456-1.561,4.137,4.137,0,0,1,1.7-.6l1.873-.336a2.3,2.3,0,0,1,1.273-.024.8.8,0,0,1,.552.984,7.315,7.315,0,0,1,4.61-1.489,3.721,3.721,0,0,1,2.017.576,1.785,1.785,0,0,1,.792,1.8c.624.144,1.393-.216,1.849.216.288.264,1.8.792.936,2.617,1.153-.6,2.593-.072,3.65.672A2.151,2.151,0,0,1,207.993,67c-.048.72-.72,1.249-1.345,1.657a1.7,1.7,0,0,1,1.609.864,3.7,3.7,0,0,1,.408,1.825,1.571,1.571,0,0,1-.1.816,1.426,1.426,0,0,1-1.1.744,4,4,0,0,1-1.417-.1,2.2,2.2,0,0,1,.912,1.561,2.575,2.575,0,0,1-.336,2.017,1.384,1.384,0,0,1-1.873.336,2.4,2.4,0,0,1,.192,2.689,1.8,1.8,0,0,1-2.545.384,2.77,2.77,0,0,1-1.993,2.545,7.954,7.954,0,0,0-2.425.552" transform="translate(-183.148 -59.388)" fill="#1f123e"/>
          </g>
          <path id="_Path_53" data-name="&lt;Path&gt;" d="M228.4,171.462a6.111,6.111,0,0,0,4.418.144c2.713-.768,2.233-1.273,2.233-1.273l.168-2.833S230.489,168.725,228.4,171.462Z" transform="translate(-159.777 -141.54)" fill="#291756"/>
          <path id="_Path_54" data-name="&lt;Path&gt;" d="M256.654,169.5a7.177,7.177,0,0,1,.456,3.482c-.384-.072-.552-.576-.552-.576l.048-2.809" transform="translate(-188.487 -143.06)" fill="#291756"/>
          <g id="_Group_61" data-name="&lt;Group&gt;" transform="translate(63.596 19.069)">
            <path id="_Path_55" data-name="&lt;Path&gt;" d="M263.729,138.8c.6.144,3.266.624,3.266.624a2.022,2.022,0,0,1-2.113,1.8C263.032,141.081,263.729,138.8,263.729,138.8Z" transform="translate(-263.6 -138.8)" fill="#fff"/>
          </g>
        </g>
      </g>
      <g id="_Group_62" data-name="&lt;Group&gt;" transform="translate(0 0)">
        <g id="_Group_63" data-name="&lt;Group&gt;" transform="translate(35.054 27.824)">
          <path id="_Path_56" data-name="&lt;Path&gt;" d="M664.9,150.368c.912.456,1.753,1.177,2.689,1.537a14.554,14.554,0,0,0,5.018.888c1.345-.024,2.905-.072,3.986-1.249,0-1.441,0-2.905.024-4.346v-.264c0-1.657,0-3.338.024-4.995v-.216c0-1.657,0-3.29.024-4.947a2.041,2.041,0,0,0-.192-1.033.9.9,0,0,0-.72-.336,47.573,47.573,0,0,0-11.238.336C664.446,140.619,664.59,145.517,664.9,150.368Z" transform="translate(-664.5 -135.221)" fill="#eaadc1"/>
        </g>
        <path id="_Path_57" data-name="&lt;Path&gt;" d="M664.6,153.065c1.729,6.531,5.883,7.228,7.42,7.54a8.553,8.553,0,0,0,1.057.144v-.264c0-1.657,0-3.338.024-4.995a21.694,21.694,0,0,1-8.236-2.281c-.12-.072-.264-.192-.264-.144Z" transform="translate(-625.901 -120.948)" fill="#df6986"/>
        <g id="_Group_64" data-name="&lt;Group&gt;" transform="translate(90.397 89.458)">
          <path id="_Path_58" data-name="&lt;Path&gt;" d="M393.275,399.176c2.113.12,3.866-1.585,5.211-3.242,1.345-1.681,2.737-3.554,4.8-4.034a8.409,8.409,0,0,1-1.056,4.082,43.023,43.023,0,0,1,8-2.905A2.551,2.551,0,0,1,411.5,393a.845.845,0,0,1,.648.961c-.072.336-.432.528-.744.7q-1.9.936-3.794,1.9c1.969-.24,4.178-.408,5.643.888a15.642,15.642,0,0,1-4.826,1.7,14.907,14.907,0,0,1,5.019.864c.192.072.432.168.5.384.12.384-.336.648-.7.744q-2.473.768-4.995,1.321a3.113,3.113,0,0,1,2.5.888.56.56,0,0,1,.24.408.658.658,0,0,1-.312.408,9.521,9.521,0,0,1-4.538,1.249,51.052,51.052,0,0,1-13.111-.624,2.118,2.118,0,0,1-1.417-.648" transform="translate(-391.618 -391.9)" fill="#e488a0"/>
        </g>
        <path id="_Path_59" data-name="&lt;Path&gt;" d="M488.133,212.27c2.905,12.918,9.1,36.234,9.1,36.234l30.856,9.8-1.057,7.132s-28.07,9.893-39.212,2.209c-11.166-7.708-17.121-44.23-17.121-44.23C478.336,209.7,484.7,203.025,488.133,212.27Z" transform="translate(-434.331 -162.696)" fill="#e5e5e5"/>
        <g id="_Group_65" data-name="&lt;Group&gt;" transform="translate(38.572 143.799)">
          <path id="_Path_60" data-name="&lt;Path&gt;" d="M602.845,640.224c-3,2.281-3.266,6.627-3.122,10.4.48,13.4,2.545,26.654,4.994,39.836q.6,3.314,1.249,6.627.648,3.386,1.321,6.771a17.657,17.657,0,0,0,.72,2.737c2.041.264,4.082.576,6.147.744.432.048.864.048,1.3.1.48-3.026.985-6.027,1.465-9.052.384-2.377.72-4.754,1.153-7.131,1.537-8.38,4.538-42.886,5.451-49.033s1.128-16.352-10.3-22.956-10.013,19.954-10.013,19.954" transform="translate(-599.693 -618.207)" fill="#e488a0"/>
        </g>
        <g id="_Group_66" data-name="&lt;Group&gt;" transform="translate(22.563 155.324)">
          <path id="_Path_61" data-name="&lt;Path&gt;" d="M669.516,688.222c-3.026,2.257-3.266,6.627-3.146,10.4.48,13.375,2.545,26.629,5.018,39.812q.6,3.314,1.249,6.627.648,3.41,1.321,6.8a20.418,20.418,0,0,0,.7,2.713c2.065.288,4.106.576,6.171.768l1.3.072c.48-3,.984-6.027,1.465-9.029.384-2.377.72-4.778,1.153-7.132,1.537-8.38,4.538-42.886,5.451-49.033.888-6.147,1.1-16.352-10.325-22.956s-9.989,19.93-9.989,19.93" transform="translate(-666.347 -666.203)" fill="#eaadc1"/>
        </g>
        <g id="_Group_67" data-name="&lt;Group&gt;" transform="translate(30.126 242.799)">
          <path id="_Path_62" data-name="&lt;Path&gt;" d="M672.882,1034.846c-.384.048-11.238-3.506-11.238-3.506l-7.468-.84-.576,3.506,4.562,4.49,12.2-.384,2.953-2.689" transform="translate(-653.6 -1030.5)" fill="#1f123e"/>
          <g id="_Group_68" data-name="&lt;Group&gt;" transform="translate(0 3.506)">
            <path id="_Path_63" data-name="&lt;Path&gt;" d="M635.776,1046.589c2.353.312,6.507,1.08,7.06-.648,2.113.816,4.178,1.609,5.859,2.209q.48.168.936.36a2.46,2.46,0,0,1,.528,3.074,2.586,2.586,0,0,1-.432.576,211.061,211.061,0,0,1-22.691-1.3,3.4,3.4,0,0,1-1.873-.6,3.476,3.476,0,0,1-.888-1.393,26.667,26.667,0,0,1-.72-3.77c3.962,1.008,8.428.984,12.222,1.489Z" transform="translate(-623.554 -1045.1)" fill="#1f123e"/>
          </g>
        </g>
        <g id="_Group_69" data-name="&lt;Group&gt;" transform="translate(46.022 231.465)">
          <path id="_Path_64" data-name="&lt;Path&gt;" d="M606.782,987.646c-.384.048-11.262-3.506-11.262-3.506l-7.444-.841-.576,3.506,4.562,4.49,12.2-.408,2.93-2.665" transform="translate(-587.5 -983.3)" fill="#1f123e"/>
          <g id="_Group_70" data-name="&lt;Group&gt;" transform="translate(0 3.506)">
            <path id="_Path_65" data-name="&lt;Path&gt;" d="M569.6,999.389c2.329.312,6.483,1.081,7.06-.648,2.089.792,4.178,1.609,5.859,2.209q.456.168.936.36a2.426,2.426,0,0,1,.5,3.074,2.3,2.3,0,0,1-.408.576,217.447,217.447,0,0,1-22.691-1.3,3.344,3.344,0,0,1-1.873-.6,3.389,3.389,0,0,1-.888-1.393,26.682,26.682,0,0,1-.72-3.77C561.342,998.909,565.784,998.861,569.6,999.389Z" transform="translate(-557.38 -997.9)" fill="#1f123e"/>
          </g>
        </g>
        <g id="_Group_71" data-name="&lt;Group&gt;" transform="translate(27.094 2.751)">
          <path id="_Path_66" data-name="&lt;Path&gt;" d="M613.967,51.046a10.183,10.183,0,0,0,3.77,6.867c1.489,1.033,7.372,3.146,12.174,3.938,2.881.456,5.739,1.225,8.644,1.177,2.905-.024,6.075-1.345,7.132-4.058,1.081-2.761-.384-5.787-.7-8.716-.36-3.458.888-7.084.432-10.445a8.123,8.123,0,0,0-.456-1.825.341.341,0,0,0-.048-.144,7.764,7.764,0,0,0-2.041-3c-2.137-2.041-5.331-3.074-8.5-3.6-.744-.1-1.489-.192-2.209-.264-5.739-.552-12.51.072-15.728,4.85a17.408,17.408,0,0,0-2.209,7.228A27.116,27.116,0,0,0,613.967,51.046Z" transform="translate(-613.769 -30.805)" fill="#eaadc1"/>
        </g>
        <g id="_Group_72" data-name="&lt;Group&gt;" transform="translate(54.611 20.495)">
          <g id="_Group_73" data-name="&lt;Group&gt;">
            <path id="_Path_67" data-name="&lt;Path&gt;" d="M621.74,107.988a1.657,1.657,0,0,0,.552-3.266A1.657,1.657,0,0,0,621.74,107.988Z" transform="translate(-620.412 -104.698)" fill="#1f123e"/>
          </g>
          <g id="_Group_74" data-name="&lt;Group&gt;" transform="translate(1.573 0.614)">
            <path id="_Path_68" data-name="&lt;Path&gt;" d="M622.387,108.561a.66.66,0,0,0,.24-1.3A.66.66,0,0,0,622.387,108.561Z" transform="translate(-621.864 -107.254)" fill="#fff"/>
          </g>
        </g>
        <g id="_Group_75" data-name="&lt;Group&gt;" transform="translate(50.612 19.456)">
          <g id="_Group_76" data-name="&lt;Group&gt;">
            <path id="_Path_69" data-name="&lt;Path&gt;" d="M633.783,107.752a4.484,4.484,0,0,1,1.225-.48c.432-.144.864-.264,1.3-.408.264-.072.816-.12.792-.5a1.232,1.232,0,0,0-.24-.576q-.1-.24-.192-.5a8.721,8.721,0,0,1-.528-2.209,7.5,7.5,0,0,1,.12-2.425c.1-.408.792-.336.744.1a10.849,10.849,0,0,0-.144,2.641,8.562,8.562,0,0,0,.72,2.425,1.171,1.171,0,0,1,.024,1.057,1.488,1.488,0,0,1-.888.528c-.48.12-.936.24-1.393.36a5.084,5.084,0,0,1-1.465.264A.143.143,0,0,1,633.783,107.752Z" transform="translate(-633.715 -100.374)" fill="#df6986"/>
          </g>
        </g>
        <g id="_Group_77" data-name="&lt;Group&gt;" transform="translate(47.548 27.819)">
          <path id="_Path_70" data-name="&lt;Path&gt;" d="M638.827,135.2c1.057.264,5.667,1.081,5.667,1.081s-.432,3.386-3.65,3.146C637.6,139.186,638.827,135.2,638.827,135.2Z" transform="translate(-638.6 -135.2)" fill="#fff"/>
        </g>
        <g id="_Group_78" data-name="&lt;Group&gt;" transform="translate(45.74 19.552)">
          <g id="_Group_79" data-name="&lt;Group&gt;">
            <path id="_Path_71" data-name="&lt;Path&gt;" d="M656.654,104.621c2.425.408,3.1-3.386.648-3.818A1.937,1.937,0,0,0,656.654,104.621Z" transform="translate(-655.1 -100.772)" fill="#1f123e"/>
          </g>
          <g id="_Group_80" data-name="&lt;Group&gt;" transform="translate(1.841 0.714)">
            <path id="_Path_72" data-name="&lt;Path&gt;" d="M657.422,105.272a.768.768,0,0,0,.264-1.513A.768.768,0,0,0,657.422,105.272Z" transform="translate(-656.82 -103.746)" fill="#fff"/>
          </g>
        </g>
        <g id="_Group_81" data-name="&lt;Group&gt;" transform="translate(47.793 16.581)">
          <g id="_Group_82" data-name="&lt;Group&gt;">
            <path id="_Path_73" data-name="&lt;Path&gt;" d="M661.654,88.544c-.072,0-.072-.144,0-.144A.072.072,0,0,1,661.654,88.544Z" transform="translate(-661.6 -88.4)" fill="#1f123e"/>
          </g>
        </g>
        <g id="_Group_83" data-name="&lt;Group&gt;" transform="translate(32.863 18.669)">
          <g id="_Group_84" data-name="&lt;Group&gt;">
            <path id="_Path_74" data-name="&lt;Path&gt;" d="M708.718,100.195a.843.843,0,0,0-.24-.12,2.819,2.819,0,0,1,.336.12.1.1,0,0,1-.072-.024q.168.024.36.048h-.024q.5-.216,1.032-.408h-.024a1.631,1.631,0,0,1-.889.432.976.976,0,0,1-.456,0,1.215,1.215,0,0,1-.312-.048,3.091,3.091,0,0,1,.408.072.1.1,0,0,0-.1,0,4.063,4.063,0,0,0,.432-.072.07.07,0,0,1-.048.024,4.012,4.012,0,0,0,.384-.168l-.1.048.336-.24a.069.069,0,0,1-.048.024,2.465,2.465,0,0,0,.264-.312.276.276,0,0,1-.048.072q.072-.192.144-.36a5,5,0,0,0-.168.864q.024-.216.048-.432a5.016,5.016,0,0,0-.024,1.2l-.048-.432a2.647,2.647,0,0,0,.192.7,4.039,4.039,0,0,0-.168-.384,1.5,1.5,0,0,0,.264.432,2.5,2.5,0,0,1-.264-.312.021.021,0,0,1,.024.024,2.476,2.476,0,0,1-.312-.264.021.021,0,0,0,.024.024,3.988,3.988,0,0,1-.384-.168.021.021,0,0,1,.024.024h-.84a.021.021,0,0,1,.024-.024,4,4,0,0,1-.384.168l.024-.024q-.144.12-.312.264a.069.069,0,0,1,.024-.048q-.12.168-.264.336a.138.138,0,0,0,.048-.1q-.072.216-.144.408a4.087,4.087,0,0,0,.1-.528q-.024.216-.048.456a3.8,3.8,0,0,0-.024-1.129,3.915,3.915,0,0,1,.072.456,4.381,4.381,0,0,0-.144-.624,1.883,1.883,0,0,0-.072-.288,1.738,1.738,0,0,1,0-1.1,1.647,1.647,0,0,1,1.2-1.2,1.673,1.673,0,0,1,.888,0,1.839,1.839,0,0,1,.769.432,1.811,1.811,0,0,1,.6,1.057c.048.288.1.576.12.864a4.581,4.581,0,0,1,0,.936,8.2,8.2,0,0,1-.24,1.3,3.624,3.624,0,0,1-.312.7,1.774,1.774,0,0,1-1.921.816,2.125,2.125,0,0,1-1.393-1.393,5.037,5.037,0,0,1-.312-1.321,6.532,6.532,0,0,1,.168-2.041,2.132,2.132,0,0,1,.984-1.561,1.892,1.892,0,0,1,1.489-.192,1.779,1.779,0,0,1,.96.768,1.49,1.49,0,0,1,.216.768,1.4,1.4,0,0,1-.072.456l.048-.384V98.8l-.048-.384a2.016,2.016,0,0,1,.072.744,1.265,1.265,0,0,1-.6,1.033A1.131,1.131,0,0,1,708.718,100.195Z" transform="translate(-706.7 -97.096)" fill="#d65273"/>
          </g>
        </g>
        <g id="_Group_85" data-name="&lt;Group&gt;" transform="translate(15.743 41.938)">
          <path id="_Path_75" data-name="&lt;Path&gt;" d="M739.065,194c-6.363.528-13.279,1.321-17.865,5.715a17.29,17.29,0,0,1,10.4,8.62,25.8,25.8,0,0,1,2.521,8.644,28.48,28.48,0,0,1,.384,5.715,20.812,20.812,0,0,1-.408,2.689,6.38,6.38,0,0,0,4.2-2.185Z" transform="translate(-721.2 -194)" fill="#f9f9f9"/>
        </g>
        <path id="_Path_76" data-name="&lt;Path&gt;" d="M598.2,486.193l4.923,119.532,19.57-.408.6-40.412.288-19.834.912-61.471Z" transform="translate(-561.35 -372.123)" fill="#667bac"/>
        <path id="_Path_77" data-name="&lt;Path&gt;" d="M601.5,574.953s3.362,7.564,6.771,11.646c2.017,2.4,5.475,1.753,8.212.648l.24-17.577L606.35,525.2Z" transform="translate(-554.373 -403.734)" fill="#566b9a"/>
        <path id="_Path_78" data-name="&lt;Path&gt;" d="M640.272,520.388c.1,1.825.192,3.794.336,5.883.552,8.332,1.513,18.321,2.593,28.238,2.521,23.028,5.643,45.527,5.643,45.527.816.024,21.947,1.008,21.947,1.008s3.482-29.463,6.051-60.871c1.441-17.457,2.593-35.538,2.737-49.465a156.324,156.324,0,0,0-.48-15.656c-2.978-30.183-31.984,5.979-31.984,5.979s-8,12.919-6.843,39.356Z" transform="translate(-626.522 -356.493)" fill="#8dabc9"/>
        <g id="_Group_86" data-name="&lt;Group&gt;" transform="translate(4.75 43.769)">
          <path id="_Path_79" data-name="&lt;Path&gt;" d="M578.028,335.993a3.1,3.1,0,0,0,1.993.864c12.27,1.921,31.672,1.513,36.883.6,5.211-.888,10.061,6.267,6.964-50.569.5,2.545.864,5.115,1.153,7.708,1.537,13.711.912,27.854,5.379,40.869a44.094,44.094,0,0,0,10.541-3.458s-9.2-118.692-14.359-123.9c0,0-1.249-3.506-2.4-4.394-1.129-.888-18.753-4.706-25.5.961-3.914,5.067-11.022,15.32-11.022,15.32s-7.732,95.088-9.989,113.649a3.042,3.042,0,0,0,.36,2.353Z" transform="translate(-577.6 -201.628)" fill="#f9f9f9"/>
        </g>
        <path id="_Path_80" data-name="&lt;Path&gt;" d="M650.9,226.6c5.211,20.794,6.171,49.849,6.723,79.672" transform="translate(-607.135 -176.834)" fill="none" stroke="#e5e5e5" stroke-miterlimit="10" stroke-width="5.8"/>
        <g id="_Group_87" data-name="&lt;Group&gt;" transform="translate(12.189 102.208)">
          <path id="_Path_81" data-name="&lt;Path&gt;" d="M588.281,457.919c4.586,1.681,9.173,3.338,13.759,5.042a4.96,4.96,0,0,1,1.945,1.057,7.948,7.948,0,0,1,1.225,2.665c1.057,2.545,3.578,4.082,6,5.427q5.907,3.266,12.03,6.2c.7.312,1.417.648,2.137.888a72.8,72.8,0,0,1,1.729-7.372c.5,2.545.864,5.115,1.153,7.708a3.442,3.442,0,0,0,.672-.168,7.589,7.589,0,0,0,3.194-2.665,48.694,48.694,0,0,0,9.221-19.33,5.5,5.5,0,0,0-.1-3.674c-1.033-2.065-4.058-2.281-5.355-4.178l-13.255-3.6c-2.977,1.945-5.859,4.01-8.644,6.243a3.505,3.505,0,0,1-1.513.84,3.72,3.72,0,0,1-2.065-.408q-9.689-4.07-19.594-7.588-.408,1.465-.768,2.93a99.958,99.958,0,0,0-1.777,9.989Z" transform="translate(-588.281 -445)" fill="#e5e5e5"/>
        </g>
        <g id="_Group_88" data-name="&lt;Group&gt;" transform="translate(29.997 92.795)">
          <g id="_Group_89" data-name="&lt;Group&gt;">
            <g id="_Group_90" data-name="&lt;Group&gt;">
              <path id="_Path_82" data-name="&lt;Path&gt;" d="M616.277,411.824a42.187,42.187,0,0,0-9.845-5.859,1.339,1.339,0,0,0-.84-.144c-.336.072-.528.408-.72.7a240.827,240.827,0,0,0-11.982,23.052,2.547,2.547,0,0,0-.288,1.945,2.458,2.458,0,0,0,1.009,1.032,105.934,105.934,0,0,0,15.944,8.957,8.246,8.246,0,0,0,3.434.936,5.758,5.758,0,0,0,4.322-2.545,21.241,21.241,0,0,0,2.257-4.634A81.464,81.464,0,0,1,626,422.294a4.915,4.915,0,0,0,1.008-2.617c-.024-1.729-1.729-2.857-3.242-3.7q-6.627-3.626-13.255-7.276" transform="translate(-592.497 -405.797)" fill="#919cbb"/>
            </g>
          </g>
        </g>
        <path id="_Path_83" data-name="&lt;Path&gt;" d="M609.676,459.106c.7-.48,1.585-1.008,2.353-.624,1.08.528.768,2.185-.024,3.074s-1.921,1.561-2.257,2.713q3.074.12,6.171.264a2.3,2.3,0,0,1,1.2.24,1.719,1.719,0,0,1,.432,2.329,3.567,3.567,0,0,1-2.161,1.441,1.421,1.421,0,0,1,1.369,1.609,2.269,2.269,0,0,1-1.489,1.729,6.143,6.143,0,0,1-2.377.336,1.552,1.552,0,0,1,.984,2.209,3.128,3.128,0,0,1-2.281,1.489,5.642,5.642,0,0,1-.888.12c.192.36.528,1.321-1.129,1.657-2.089.432-12.366-5.571-13.639-6.123a.651.651,0,0,1-.36-.864q-.216-.1-.408-.168c-.168-.1-.336-.168-.408-.312a.844.844,0,0,1-.072-.48,60.092,60.092,0,0,1,1.441-8.764l7.708,2.281" transform="translate(-553.833 -352.936)" fill="#eaadc1"/>
        <path id="_Path_84" data-name="&lt;Path&gt;" d="M671.915,200.052c0,.336-2.353,7.564-2.353,7.564L666.2,199.5l6.075.672" transform="translate(-625.461 -156.242)" fill="#eaadc1"/>
        <g id="_Group_91" data-name="&lt;Group&gt;" transform="translate(28.709 39.2)">
          <path id="_Path_85" data-name="&lt;Path&gt;" d="M659.643,200.1c-.72.36-5.667,7.06-5.643,6.8,0-.264,3.53-8.692,3.53-8.692Z" transform="translate(-638.608 -194.454)" fill="#e5e5e5"/>
          <path id="_Path_86" data-name="&lt;Path&gt;" d="M679.805,201l3.89,8.02-6.2-3.674Z" transform="translate(-668.303 -196.582)" fill="#e5e5e5"/>
          <path id="_Path_87" data-name="&lt;Path&gt;" d="M641.6,201.418a2.1,2.1,0,0,1,.12-.312c.672-1.609,3.866-8.908,3.866-8.908l5.091,4.994L645.25,190.3" transform="translate(-626.664 -188.451)" fill="#fff"/>
          <path id="_Path_88" data-name="&lt;Path&gt;" d="M691.122,185.962l2.833,9.293-3.746-7.444-3.146,6.291L678.9,186.01l4.082-3.41Z" transform="translate(-678.9 -182.6)" fill="#fff"/>
        </g>
        <path id="_Path_89" data-name="&lt;Path&gt;" d="M682.183,216.4c-8.836.072-15.632,36.522-16.568,50.425-.96,13.927,44.638,21.827,44.638,21.827l2.305-10.325-21.227-11.07S710.758,216.157,682.183,216.4Z" transform="translate(-665.6 -169.081)" fill="#fff"/>
        <path id="_Path_90" data-name="&lt;Path&gt;" d="M622.859,420.185l1.273-3.194L612.053,410.1l-2.353,3.842Z" transform="translate(-563.75 -316.272)" fill="#1f123e"/>
        <g id="_Group_92" data-name="&lt;Group&gt;" transform="translate(55.224 14.708)">
          <g id="_Group_93" data-name="&lt;Group&gt;">
            <path id="_Path_91" data-name="&lt;Path&gt;" d="M618.246,83.554a.533.533,0,0,1-.168.024.894.894,0,0,1-.456-.024.185.185,0,0,1-.072-.024,1.609,1.609,0,0,1-.408-.192q-.192-.1-.36-.168a2.194,2.194,0,0,0,.288.12c-.144-.048-.288-.1-.456-.168a3.4,3.4,0,0,0-.432-.192q.144.048.312.12a2.08,2.08,0,0,1-.408-.168,1.249,1.249,0,0,1-.456-.48,2.171,2.171,0,0,1,.168.24v-.024a2.624,2.624,0,0,0,.216.192,1.956,1.956,0,0,1-.624-.552,1.1,1.1,0,0,1,.168-1.273,1,1,0,0,1,.48-.288,1.634,1.634,0,0,1,.36-.048,1.113,1.113,0,0,1,.216-.024q-.168.024-.312.048h.024l-.288.1a1.635,1.635,0,0,1,.672-.168,2.675,2.675,0,0,1,.408.048,1.367,1.367,0,0,1,.24.072,2.519,2.519,0,0,1,.672.336,3.957,3.957,0,0,1,.6.456,1.308,1.308,0,0,1,.408.648,1.368,1.368,0,0,1,0,.624,1.479,1.479,0,0,1-.288.48A1.069,1.069,0,0,1,618.246,83.554Z" transform="translate(-615.25 -80.6)" fill="#1f123e"/>
          </g>
        </g>
        <g id="_Group_94" data-name="&lt;Group&gt;" transform="translate(44.503 14.694)">
          <g id="_Group_95" data-name="&lt;Group&gt;">
            <path id="_Path_92" data-name="&lt;Path&gt;" d="M657.689,81.707a1.345,1.345,0,0,1-.576.408,3.24,3.24,0,0,1-.528.144,12.519,12.519,0,0,1-1.369.24c-.384.024-.768.072-1.153.1a2.643,2.643,0,0,1-1.369-.072l.336.1a2.375,2.375,0,0,0-.336.024.6.6,0,0,1-.312-1.1q.168-.1.312-.168l-.24.24a1.185,1.185,0,0,1,.624-.456,5.318,5.318,0,0,1,.7-.288,9.689,9.689,0,0,1,1.2-.264,6.7,6.7,0,0,1,1.393-.048,2.721,2.721,0,0,1,.744.144.566.566,0,0,1,.24.12q.12.1.048.048a2.252,2.252,0,0,1,.288.216.475.475,0,0,1,0,.624Z" transform="translate(-652.112 -80.54)" fill="#1f123e"/>
          </g>
        </g>
        <path id="_Path_93" data-name="&lt;Path&gt;" d="M689.913,272.158l8.813-.408s-1.1-3.65-1.417-3.65-8.909.5-8.909.5l1.825,3.962" transform="translate(-657.241 -208.369)" fill="#919cbb"/>
        <g id="_Group_96" data-name="&lt;Group&gt;" transform="translate(33.295 105.444)">
          <g id="_Group_97" data-name="&lt;Group&gt;">
            <path id="_Path_94" data-name="&lt;Path&gt;" d="M707.981,459.225a8.682,8.682,0,0,1-.744,2.521c-.312.792-.624,1.585-.937,2.4a13.147,13.147,0,0,1-.5,1.225c-.168.384-.36.72-.5,1.1a11.044,11.044,0,0,0-.648,2.473.674.674,0,0,1-.456.6.069.069,0,0,0-.048.024.539.539,0,0,1-.5-.144l-.048-.048a.612.612,0,0,1-.168-.6,12.427,12.427,0,0,0,.432-1.225c.12-.432.216-.865.312-1.3.192-.84.264-1.681.5-2.521.264-.816.5-1.633.816-2.425a16.067,16.067,0,0,1,1.081-2.473A.764.764,0,0,1,707.981,459.225Z" transform="translate(-703.394 -458.474)" fill="#e5e5e5"/>
          </g>
        </g>
        <g id="_Group_98" data-name="&lt;Group&gt;" transform="translate(38.96 108.691)">
          <g id="_Group_99" data-name="&lt;Group&gt;">
            <path id="_Path_95" data-name="&lt;Path&gt;" d="M683.306,476.274a1.8,1.8,0,0,1-.816-.192,1.522,1.522,0,0,1-.672-.432,1.706,1.706,0,0,1-.456-.7,1.6,1.6,0,0,1-.168-.816q.024-.288.072-.576a2.085,2.085,0,0,1,.552-.937l.432-.336a2.015,2.015,0,0,1,1.057-.288,1.853,1.853,0,0,1,.84.192,1.838,1.838,0,0,1,1.1,1.129,1.468,1.468,0,0,1,.192.816q-.048.288-.072.576a2.085,2.085,0,0,1-.552.937l-.432.336A2.142,2.142,0,0,1,683.306,476.274Z" transform="translate(-681.19 -472)" fill="#919cbb"/>
          </g>
        </g>
        <path id="_Path_96" data-name="&lt;Path&gt;" d="M618.4,46.5s4.658.96,9.869,1.657a31.706,31.706,0,0,0,5.331.312.341.341,0,0,0-.048-.144,7.762,7.762,0,0,0-2.041-3l-5.066-.72Z" transform="translate(-575.307 -38.536)" fill="#df6986"/>
        <g id="_Group_100" data-name="&lt;Group&gt;" transform="translate(25.69)">
          <path id="_Path_97" data-name="&lt;Path&gt;" d="M628.86,27.836a5.649,5.649,0,0,0,5.307-2.881c.456-.864.6-2.089-.168-2.689a1.775,1.775,0,0,0-2.041.1,5.209,5.209,0,0,0-1.369,1.681c.432-1.609.312-3.65-1.1-4.514a.917.917,0,0,0-.648-.168c-.384.048-.576.48-.792.792-.912,1.417-2.857,1.681-4.538,1.657-3.674-.024-7.324-.624-11-.7-3.65-.1-7.468.36-10.589,2.281a7.925,7.925,0,0,0-1.777,1.441,9.56,9.56,0,0,0-1.7,3.674,44.3,44.3,0,0,0-1.681,11.214,11.5,11.5,0,0,0,.36,3.842,9.414,9.414,0,0,0,3.386,4.466,28.594,28.594,0,0,0,4.971,2.761l.288-3.026a1.359,1.359,0,0,0-.048-.7c-.12-.264-.408-.408-.648-.576a7.777,7.777,0,0,1-3.218-6.435,4.457,4.457,0,0,1,1.417-3.77c1.489-1.1,3.746-.336,4.9,1.129a10.731,10.731,0,0,1,1.7,5.187.823.823,0,0,0,.216.552.789.789,0,0,0,.528.12,11.5,11.5,0,0,0,2.713-.336.593.593,0,0,0,.384-.192.712.712,0,0,0,.072-.456,13.522,13.522,0,0,0-1.369-3.866q-.768-1.681-1.561-3.362a1.548,1.548,0,0,1-.216-.864c.072-.432.528-.72.96-.888a8.729,8.729,0,0,1,2.545-.7c.48-.048,1.033-.12,1.225-.552a1.2,1.2,0,0,0,.024-.768q-.264-1.249-.5-2.5a1.355,1.355,0,0,1-.024-.816c.216-.7,1.153-.744,1.9-.672q5.835.576,11.718.72" transform="translate(-596.737 -19.347)" fill="#1f123e"/>
        </g>
      </g>
      <g id="_Group_101" data-name="&lt;Group&gt;" transform="translate(183.539 80.909)">
        <g id="_Group_102" data-name="&lt;Group&gt;">
          <path id="_Compound_Path_2" data-name="&lt;Compound Path&gt;" d="M81.781,357.885l-1.081.432.48,1.2,1.081-.432.456,1.081,1.177-.48-.432-1.08,1.1-.456-.48-1.177-1.1.432-.432-1.1-1.2.48Z" transform="translate(-80.7 -356.3)" fill="#fff"/>
        </g>
      </g>
    </g>
  </g>
</svg>
