<svg xmlns="http://www.w3.org/2000/svg" width="12.783" height="12.783" viewBox="0 0 12.783 12.783">
  <g id="download-minimalistic-svgrepo-com" transform="translate(-2.25 -2.25)">
    <path id="Path_30073" data-name="Path 30073" d="M10.727,11.6a.492.492,0,0,1-.726,0L7.379,8.728A.492.492,0,0,1,8.1,8.064L9.872,10V2.742a.492.492,0,1,1,.983,0V10l1.768-1.933a.492.492,0,1,1,.726.664Z" transform="translate(-1.722)" fill="#7f0210"/>
    <path id="Path_30074" data-name="Path 30074" d="M3.233,14.742a.492.492,0,0,0-.983,0v.036a17.974,17.974,0,0,0,.076,2.188,2.437,2.437,0,0,0,.644,1.481,2.437,2.437,0,0,0,1.481.644,17.985,17.985,0,0,0,2.187.076h4.005a17.985,17.985,0,0,0,2.188-.076,2.437,2.437,0,0,0,1.481-.644,2.437,2.437,0,0,0,.644-1.481,17.985,17.985,0,0,0,.076-2.188v-.036a.492.492,0,0,0-.983,0,17.62,17.62,0,0,1-.068,2.092,1.478,1.478,0,0,1-.364.917,1.478,1.478,0,0,1-.917.364,17.62,17.62,0,0,1-2.092.068H6.675a17.62,17.62,0,0,1-2.092-.068,1.478,1.478,0,0,1-.917-.364,1.478,1.478,0,0,1-.364-.917A17.61,17.61,0,0,1,3.233,14.742Z" transform="translate(0 -4.133)" fill="#7f0210"/>
  </g>
</svg>
